<svg id="Layer_1" data-name="Layer 1" xmlns="http://www.w3.org/2000/svg" xmlns:xlink="http://www.w3.org/1999/xlink" viewBox="0 0 48.07 47.38"><defs><style>.cls-1{fill:none;}.cls-2{fill:#231f20;}.cls-3{clip-path:url(#clip-path);}.cls-4{fill:#039abe;}.cls-5{clip-path:url(#clip-path-2);}.cls-6{clip-path:url(#clip-path-3);}.cls-7{clip-path:url(#clip-path-4);}</style><clipPath id="clip-path"><rect class="cls-1" x="25.69" y="16.3" width="0.66" height="0.21"/></clipPath><clipPath id="clip-path-2"><rect class="cls-1" x="25.09" y="15.6" width="0.84" height="0.7"/></clipPath><clipPath id="clip-path-3"><rect class="cls-1" x="21.77" y="16.28" width="0.66" height="0.21"/></clipPath><clipPath id="clip-path-4"><rect class="cls-1" x="22.2" y="15.58" width="0.85" height="0.7"/></clipPath></defs><path class="cls-2" d="M12.38,17v.64l.56.55c0,.12-.09,13.65-.09,13.65l11,9.18.18-.22-10.85-9.1c0-.13.1-13.62.1-13.62l-.56-.56v-.38l11.41.09v-.29l-11.69-.08Z"/><path class="cls-2" d="M35.6,17l-11.55-.08v.29l11.41.07v.38l-.58.55s-.09,13.49-.09,13.63l-11,8.93L24,41l11.08-9s.1-13.52.1-13.64l.57-.55V17Z"/><path class="cls-2" d="M34.23,17.73l-20.41-.14-.1,13.89,10.09,8.6.18-.21L14,31.35c0-.13.09-13.2.1-13.48l20,.14c0,.28-.09,13.54-.09,13.54h.28l.1-13.83Z"/><path class="cls-2" d="M34.08,17.87S34,31.36,34,31.49s-10.2,8.37-10.2,8.37l.18.23,10.3-8.47.1-13.75Z"/><polygon class="cls-2" points="27.73 23.24 27.63 36.84 27.92 36.85 28.01 23.24 27.73 23.24"/><polygon class="cls-2" points="27.73 22.91 27.63 36.84 27.92 36.85 28.01 22.91 27.73 22.91"/><path class="cls-2" d="M24.07,6.39c-.24.12-.26.19-.26.5V7l-.15.16a.54.54,0,0,0-.08.26.49.49,0,0,0,.08.25h0a1.88,1.88,0,0,1-.05.22c0,.07,0,.07-.08.1L23.35,8a2.63,2.63,0,0,0-1,1.1,2.26,2.26,0,0,0-.2.89,2.69,2.69,0,0,0,0,.31c0,.07,0,.13,0,.18a.27.27,0,0,1,0,.18l-.11.14h0c-.14,0-.14.1-.14.31,0,0,0,.08,0,.12a1.38,1.38,0,0,0-.14.24l.25.13.16-.27V11.3s0-.13,0-.22a.65.65,0,0,0,.22-.24.67.67,0,0,0,.08-.33,1.48,1.48,0,0,0,0-.21,2.16,2.16,0,0,1,0-.28,2,2,0,0,1,.18-.78,2.39,2.39,0,0,1,.85-1l.13-.06a.35.35,0,0,0,.27-.37l0-.1a.23.23,0,0,0,0-.11.22.22,0,0,0,0-.13.45.45,0,0,1-.05-.13l.05-.13L24,7.17a.27.27,0,0,0,.13-.27V6.69l0,0a.12.12,0,0,1,.05.11.38.38,0,0,1,0,.1V7a.23.23,0,0,0,.12.23l.06.07a.33.33,0,0,1,.05.12s0,.06-.06.13a.35.35,0,0,0,0,.14.1.1,0,0,0,0,.1v.1a.34.34,0,0,0,.27.37l.13.07a2.41,2.41,0,0,1,.83,1,2,2,0,0,1,.17.79,2.46,2.46,0,0,1,0,.28,1.5,1.5,0,0,0,0,.2.67.67,0,0,0,.08.33.75.75,0,0,0,.21.24h0l0,.28c.13.34.16.41.29.37l.08-.21-.11-.27v-.13l0-.53-.19.21-.08-.11a.37.37,0,0,1,0-.18,1.21,1.21,0,0,1,0-.18,2.69,2.69,0,0,0,0-.31,2.43,2.43,0,0,0-.18-.9A2.82,2.82,0,0,0,24.92,8L24.74,8c-.08,0-.08,0-.08-.1s0-.14-.05-.21a.62.62,0,0,0,.09-.26.54.54,0,0,0-.08-.26l-.16-.18a1.09,1.09,0,0,0,0-.17.36.36,0,0,0-.26-.39l-.06,0Z"/><path class="cls-2" d="M15.48,11.83,13.81,13h-.88v.63l.78.37c0,.17,0,3.09,0,3.09l20.75.15s0-2.93,0-3.1l.79-.35V13.2h-.88l-1.74-1.3-1.7,1.3-.88,0s0,.28,0,.4H27.92v.28l2.39,0s0-.28,0-.4l.69,0,1.61-1.24,1.65,1.23H35a1,1,0,0,1,0,.17l-.78.35s0,2.73,0,3L14,16.85c0-.26,0-3,0-3l-.77-.36a.85.85,0,0,1,0-.16h.68l1.67-1.21,1.59,1.26.69,0v.4h1.09l1.12,0v-.28l-1.13,0h-.8v-.41l-.88,0-1.69-1.32Z"/><polygon class="cls-2" points="23.79 39.86 23.97 40.09 34.22 31.66 34.04 31.45 23.79 39.86"/><polygon class="cls-2" points="27.73 22.96 27.63 36.84 27.92 36.84 28.01 22.96 27.73 22.96"/><path class="cls-2" d="M43.71,27.17a.79.79,0,0,1-.78-.79.79.79,0,1,1,1.57,0,.8.8,0,0,1-.79.78"/><path class="cls-2" d="M4.3,26.89a.79.79,0,1,0-.78-.79.78.78,0,0,0,.78.79"/><path class="cls-2" d="M6.58,23.57A17.46,17.46,0,1,0,24.16,6.23,17.47,17.47,0,0,0,6.58,23.57m.19,0A17.27,17.27,0,1,1,23.91,41,17.28,17.28,0,0,1,6.77,23.57"/><path class="cls-2" d="M27.22,12.81l.06.18a2.32,2.32,0,0,1,1.61-.11,1.68,1.68,0,0,1-.78.23v.19a2,2,0,0,0,1.11-.37l.2-.12-.23-.06a2.62,2.62,0,0,0-2,.06"/><path class="cls-2" d="M27.85,12.22l-.58.15,0,.19.59-.15a2,2,0,0,1,1-.07,2.37,2.37,0,0,1-.58.26l0,.19a3.89,3.89,0,0,0,.87-.42l.23-.13-.26,0a2.36,2.36,0,0,0-1.39,0"/><path class="cls-2" d="M27.15,13.14l0,.19a2.25,2.25,0,0,1,1.32.09,2,2,0,0,1-.73.14v.19a2.57,2.57,0,0,0,1.08-.25l.21-.1-.22-.08a2.68,2.68,0,0,0-1.69-.18"/><path class="cls-2" d="M27.15,13.65a2.2,2.2,0,0,1,1.15.42,1.47,1.47,0,0,1-1-.1l-.09.16a1.92,1.92,0,0,0,1.41.09l.23-.05-.2-.13a2.63,2.63,0,0,0-1.45-.57Z"/><path class="cls-2" d="M27.21,14.2a2.32,2.32,0,0,1,1,.3,1.8,1.8,0,0,1-1,0l-.06.18a2.15,2.15,0,0,0,1.37,0l.22-.06-.21-.11a2.87,2.87,0,0,0-1.3-.46Z"/><path class="cls-2" d="M27.15,14.71A2.4,2.4,0,0,1,28,15a1.87,1.87,0,0,1-1,0l-.07.17a2.12,2.12,0,0,0,1.43,0l.22-.06L28.37,15a3,3,0,0,0-1.21-.45Z"/><path class="cls-2" d="M26.19,15.8a1.79,1.79,0,0,1,.83.55,1.55,1.55,0,0,1-1.26-.62l-.15.11c.31.46.76.66,1.65.73l.23,0-.15-.18a2.19,2.19,0,0,0-1.09-.79Z"/><path class="cls-2" d="M26.86,15.15a2.13,2.13,0,0,1,1,.44,1.85,1.85,0,0,1-1.11-.21l-.09.16a2.1,2.1,0,0,0,1.49.21l.23,0-.19-.13A2.84,2.84,0,0,0,26.9,15Z"/><path class="cls-2" d="M26.62,15.56a2.45,2.45,0,0,1,.95.44,1.69,1.69,0,0,1-1.24-.31l-.12.15a2,2,0,0,0,1.66.33l.23,0L27.91,16a2.79,2.79,0,0,0-1.26-.62Z"/><path class="cls-2" d="M1.54,23.53A22.5,22.5,0,1,0,24.2,1.19,22.52,22.52,0,0,0,1.54,23.53m.38,0a22.12,22.12,0,1,1,22,22.27,22.14,22.14,0,0,1-22-22.27"/><path class="cls-2" d="M17,6.77a1.65,1.65,0,0,1-1-1,1.74,1.74,0,0,1,.09-1.34,1.81,1.81,0,0,1,1.07-.92,1.82,1.82,0,0,1,2.42,1,1.8,1.8,0,0,1-1.19,2.26,2.31,2.31,0,0,1-1.4,0m1.77-1.86c-.21-.59-.83-1.48-1.57-1.22s-.56,1.1-.38,1.61a2.29,2.29,0,0,0,.58.92,1,1,0,0,0,1,.32c.64-.23.55-1.12.37-1.63"/><path class="cls-2" d="M21.42,3.75c0,.15,0,.25.19.23a2.7,2.7,0,0,0,.44-.07c.15,0,.2-.16.23-.3s0-.18.14-.19.11.05.12.13,0,.31,0,.46,0,.3.06.45,0,.15-.1.15c-.25,0-.11-.49-.67-.44l-.23,0c-.17,0-.15.1-.14.24l.06.68c0,.31,0,.44.36.46.07,0,.17,0,.18.1s0,.11-.12.12l-.81,0c-.26,0-.5.07-.76.09-.07,0-.13,0-.13-.09s.06-.11.13-.13c.34-.09.31-.18.28-.52L20.5,3.32c0-.32,0-.46-.37-.48-.07,0-.17,0-.18-.09s.05-.11.12-.11c.49-.05,1-.07,1.47-.12s.68-.09,1-.12c.14,0,.17,0,.19.14l.05.5c0,.08,0,.15-.09.16s-.17-.11-.23-.18a.57.57,0,0,0-.29-.26,1.3,1.3,0,0,0-.52,0c-.06,0-.23,0-.29.06s0,.13,0,.19Z"/><path class="cls-2" d="M28.48,2.88c.11-.16.13-.25.34-.21s.15.1.18.26l.52,2.75c0,.08.05.21.08.29a.24.24,0,0,0,.18.17c.09,0,.19,0,.17.15s-.13.08-.21.07l-.62-.16-.76-.14c-.08,0-.16,0-.14-.15s.37,0,.41-.14a.66.66,0,0,0,0-.2l-.08-.46c0-.19,0-.18-.2-.22l-.68-.15c-.18,0-.16,0-.26.11a1.81,1.81,0,0,0-.22.44c-.07.37.49.26.44.49s-.13.09-.2.08-.32-.09-.48-.12l-.49-.09c-.08,0-.16-.06-.14-.15s.1-.08.17-.08.21,0,.32-.11.24-.36.33-.49l.44-.66ZM27.76,4.3s-.07.1-.08.14.1.08.15.09l.45.09s.16.06.18,0,0-.12,0-.14l-.15-1Z"/><path class="cls-2" d="M34.14,7.28c-.16.33-.3.61-.7.71a1.64,1.64,0,0,1-1.08-.19,2.27,2.27,0,0,1-.85-.68,1,1,0,0,1,0-1.06l.64-1.3c.14-.29.23-.4,0-.6,0,0-.14-.09-.1-.17s.09-.07.15,0c.25.12.48.26.73.38l.69.32c.06,0,.11.07.07.14s-.12,0-.18,0c-.35-.1-.37,0-.53.32l-.51,1.05a2.78,2.78,0,0,0-.3.78.73.73,0,0,0,.48.71.91.91,0,0,0,.8.07,1,1,0,0,0,.47-.58L34.5,6a1,1,0,0,0,.15-.4.32.32,0,0,0-.19-.26c-.07,0-.19-.08-.14-.19s.14-.05.21,0l.42.22.43.2c.06,0,.1.08.07.15s-.14,0-.22,0a.23.23,0,0,0-.29,0,2.07,2.07,0,0,0-.19.32Z"/><path class="cls-2" d="M37.93,8.25c-.06.06-.12.16-.21.08s0-.13,0-.2c.11-.29.17-.61-.1-.83a.55.55,0,0,0-.77,0c-.18.22,0,.46.08.66l.16.24a1.11,1.11,0,0,1,.06,1.42,1.14,1.14,0,0,1-.87.39,1.48,1.48,0,0,1-.95-.38,2.29,2.29,0,0,1-.58-.7c-.08-.18,0-.22.09-.35L35,8.34c.06-.07.17-.23.27-.15s0,.22,0,.3a1,1,0,0,0-.12.48.81.81,0,0,0,.31.5.64.64,0,0,0,.91,0c.27-.33,0-.72-.17-1s-.46-.91-.12-1.32a1.26,1.26,0,0,1,1.74.05,1.77,1.77,0,0,1,.44.54c0,.1,0,.16-.08.24Z"/><path class="cls-2" d="M39,12.38c-.25.19-.36.25-.21.55,0,.06.08.15,0,.21s-.12,0-.16-.05c-.16-.22-.3-.44-.47-.66s-.32-.4-.47-.6-.06-.12,0-.17.14,0,.19.05c.25.24.32.18.59,0l1.8-1.33c.12-.09.12-.09,0-.21a.76.76,0,0,0-.76-.31c-.08,0-.23,0-.28-.06a.1.1,0,0,1,0-.15l.11,0,.6-.24c.08,0,.17-.07.23,0a.09.09,0,0,1,0,.13c-.09.13,0,.14,0,.26l1.13,1.53c.1.13.17.25.35.24s.12,0,.15,0,0,.14-.1.19l-.58.34c-.08.05-.18.13-.25,0s0-.16,0-.23c.22-.35.26-.46,0-.82-.09-.11-.1-.1-.22,0Z"/><path class="cls-2" d="M41,15.78c-.29.13-.41.16-.32.49,0,.07,0,.16,0,.21s-.12,0-.14-.08c-.12-.25-.21-.5-.33-.75s-.23-.45-.34-.68c0-.07,0-.13,0-.16s.14,0,.17.08c.2.29.28.24.59.1l1.71-.79c.29-.14.43-.16.34-.5,0-.06-.06-.16,0-.19s.11,0,.14.07c.12.25.21.5.32.75l.34.68c0,.07,0,.12,0,.16s-.12,0-.16-.09c-.2-.3-.28-.24-.61-.09Z"/><path class="cls-2" d="M44.31,20a1.35,1.35,0,0,0,.35-.14.32.32,0,0,0,.1-.32c0-.09-.07-.19,0-.22s.14.09.16.16.07.31.11.46.09.3.13.45,0,.15-.07.17-.13-.15-.16-.23c-.1-.24-.34-.14-.54-.09L42,20.82c-.14,0-.23.09-.27-.09s.05-.22.13-.32l2-2.68-1.69.44a1.89,1.89,0,0,0-.49.17c-.14.09-.14.2-.12.34s.06.22-.05.25-.13-.06-.15-.13-.06-.32-.1-.48-.11-.33-.15-.49,0-.14.07-.16.14.1.16.18a.21.21,0,0,0,.21.17,1.88,1.88,0,0,0,.62-.11l1.6-.41c.2-.05.43-.09.38-.35,0-.09,0-.2.06-.23s.12.08.13.15l.24.9c.05.21,0,.19-.09.36l-1.43,1.94Z"/><path class="cls-2" d="M11.07,7.42A.51.51,0,0,0,11,7.18c-.07-.09-.19-.07-.3,0s-.18.15-.24.07a.14.14,0,0,1,.06-.19l.4-.28.45-.38c.06,0,.16-.07.21,0s0,.1-.05.14a.63.63,0,0,0-.16.26,2.15,2.15,0,0,0,0,.62l.05,1.16.53.68c.19.25.25.36.55.2.06,0,.15-.08.21,0s0,.11,0,.15l-.66.48-.59.49c-.06,0-.12.06-.17,0s0-.13,0-.18c.24-.26.18-.32,0-.59l-.43-.56L9.26,8.74a1.32,1.32,0,0,0-.33-.08.3.3,0,0,0-.21,0c-.07.05-.14.12-.21,0s0-.14.08-.19.38-.26.56-.41.44-.35.66-.53c.06,0,.16-.12.23,0s-.06.17-.12.21-.12.14-.07.2.21.11.28.14l1,.32Z"/><path class="cls-2" d="M9.32,12c.25.18.34.28.58,0,0,0,.12-.12.2-.06s.05.11,0,.16c-.17.22-.35.42-.51.64s-.3.42-.45.62-.09.09-.16,0a.14.14,0,0,1,0-.18c.17-.32.09-.36-.19-.57L7,11.33c-.12-.08-.12-.09-.21,0a.72.72,0,0,0-.08.81c0,.07.07.22,0,.29a.09.09,0,0,1-.14,0,.34.34,0,0,1-.08-.09l-.39-.51c0-.06-.12-.14-.06-.22a.1.1,0,0,1,.13,0c.14.05.14,0,.23-.11L7.57,10c.1-.13.19-.22.13-.39a.15.15,0,0,1,0-.16c.07-.1.14,0,.2,0l.5.46c.06.07.17.14.1.23a.18.18,0,0,1-.22,0c-.4-.1-.52-.11-.78.24-.08.11-.07.13,0,.21Z"/><path class="cls-2" d="M7.63,14.76c.27.16.37.24.59,0,0-.06.1-.14.19-.09s.06.1,0,.16c-.14.24-.29.46-.42.69s-.24.46-.36.68c0,.06-.08.1-.15.06s-.06-.13,0-.19c.12-.33,0-.36-.26-.53l-1.63-.94c-.28-.15-.39-.25-.6,0,0,.05-.1.14-.18.1s-.06-.1,0-.16c.13-.24.28-.46.42-.7s.23-.45.36-.67c0-.06.08-.1.15-.06s0,.12,0,.18c-.13.34,0,.37.28.55Z"/><path class="cls-2" d="M6.77,16.86c.16.07.23.09.27.27a2.17,2.17,0,0,1-.12,1,2.47,2.47,0,0,1-.85,1.18,1.73,1.73,0,0,1-1.47.18,1.67,1.67,0,0,1-1-1.1,2.57,2.57,0,0,1,.1-1.55,3.43,3.43,0,0,1,.37-.71c.09-.12.11-.11.27-.08l.26.05.15,0c.06,0,.07.06,0,.12-.08.23-.68,0-.93.7A1.11,1.11,0,0,0,4,18a1.77,1.77,0,0,0,.87.63,2,2,0,0,0,1,.1,1.09,1.09,0,0,0,.81-.66.88.88,0,0,0,0-.6A1.49,1.49,0,0,0,6.4,17c0-.05-.08-.1-.05-.16s.15-.07.22,0Z"/><path class="cls-2" d="M10.91,38.34c-.05.06-.09.09,0,.15l.18.13a.2.2,0,0,0,.18,0s.08-.05.12,0,0,0,0,.08l-.15.17-.14.19s-.05.05-.09,0,.14-.22-.08-.39l-.1-.07c-.07,0-.09,0-.13,0l-.21.26c-.1.13-.15.17,0,.29s.06.07,0,.1a.06.06,0,0,1-.09,0L10.08,39l-.3-.23s0-.05,0-.08.06,0,.09,0,.18.05.29-.09l.58-.73c.1-.13.16-.18,0-.3s-.06-.06,0-.1.06,0,.09,0l.57.47.4.31c.06,0,.07,0,0,.11l-.16.2a0,0,0,0,1-.08,0s0-.09,0-.14a.31.31,0,0,0,0-.19.81.81,0,0,0-.18-.19.57.57,0,0,0-.13-.08s-.06,0-.08.06Z"/><path class="cls-2" d="M12.18,40.47a.82.82,0,0,1,.09-.7.85.85,0,0,1,.57-.37.87.87,0,0,1,.68.14.91.91,0,0,1,.35,1.26.89.89,0,0,1-1.25.22,1.18,1.18,0,0,1-.44-.55m1.27.14c.18-.27.34-.79,0-1s-.61.12-.76.34a1.2,1.2,0,0,0-.18.51.48.48,0,0,0,.18.49c.28.19.61-.12.75-.34"/><path class="cls-2" d="M16.14,42.56c-.09.16-.17.3-.37.33a.83.83,0,0,1-.53-.13,1.13,1.13,0,0,1-.41-.37.49.49,0,0,1,.06-.52l.37-.63c.08-.14.12-.19,0-.3s-.07,0,0-.09,0,0,.08,0l.34.21.34.18s0,0,0,.08-.06,0-.09,0-.19,0-.28.14l-.29.5a2.18,2.18,0,0,0-.18.38.38.38,0,0,0,.22.37.43.43,0,0,0,.4.06c.13-.05.18-.16.25-.27l.34-.58a.5.5,0,0,0,.08-.2.14.14,0,0,0-.08-.13s-.09-.05-.06-.1.07,0,.1,0l.21.13.2.11a.05.05,0,0,1,0,.07c0,.05-.08,0-.11,0s-.1,0-.15,0l-.11.16Z"/><path class="cls-2" d="M19,42.7a.62.62,0,0,0,0-.19c0-.06-.06-.09-.12-.12s-.09,0-.08-.07.07,0,.11,0l.23.06.22,0s.07,0,.06.07-.1,0-.14,0-.14.11-.16.21l-.29,1.22c0,.07,0,.13-.11.1s-.08-.07-.11-.13l-.71-1.51-.2.85a1.11,1.11,0,0,0,0,.25.15.15,0,0,0,.13.14s.11,0,.1.08a.07.07,0,0,1-.09,0l-.24-.07-.25,0s-.07,0-.06-.07.08,0,.12,0a.11.11,0,0,0,.13-.05,1,1,0,0,0,.09-.3l.19-.8c0-.1.07-.22-.06-.26s-.1,0-.09-.07.06,0,.1,0l.45.11c.1,0,.1,0,.14.12l.52,1.09Z"/><path class="cls-2" d="M20.67,43.16c0-.13,0-.23-.1-.24s-.1,0-.09-.06.73,0,.85,0a1.41,1.41,0,0,1,.67.3.73.73,0,0,1,.24.71,1,1,0,0,1-1.16.68l-.66-.13-.15,0s-.06,0-.05-.07.05,0,.08,0,.17,0,.21-.22Zm.28.92c0,.18-.07.33.14.37a.56.56,0,0,0,.47-.17.94.94,0,0,0,.23-.48.65.65,0,0,0-.45-.82c-.18,0-.19,0-.23.19Z"/><path class="cls-2" d="M24,43.62c0,.08,0,.12.09.12h.22a.2.2,0,0,0,.13-.15s0-.08.08-.08,0,0,0,.07a1.69,1.69,0,0,0,0,.23,1.62,1.62,0,0,0,0,.22s0,.08-.05.08,0-.26-.32-.26h-.11c-.09,0-.08,0-.08.11v.31a.41.41,0,0,0,0,.22.26.26,0,0,0,.2.08.45.45,0,0,0,.43-.24s.05-.09.09-.09.06,0,.06.06,0,.09,0,.12l0,.21s0,0,0,0l-.59,0h-.77s-.06,0-.06,0a.07.07,0,0,1,.07-.06c.18,0,.18-.08.18-.24v-.94c0-.16,0-.24-.15-.27s-.09,0-.09,0,0-.06.07-.06h1.3c.06,0,0,0,0,.1v.21s0,.09,0,.09-.07-.05-.09-.08a.53.53,0,0,0-.12-.14.29.29,0,0,0-.21-.05.9.9,0,0,0-.23,0s0,.09,0,.13Z"/><path class="cls-2" d="M26.17,43.19c0-.14,0-.23-.18-.19s-.1,0-.1,0,.67-.27.79-.29a1.3,1.3,0,0,1,.73,0,.75.75,0,0,1,.48.57A1,1,0,0,1,27,44.35l-.66.1-.15,0a0,0,0,0,1-.07-.05s0,0,.06-.06.14-.11.11-.28Zm.58.77c0,.17.05.32.27.29a.56.56,0,0,0,.38-.32,1,1,0,0,0,0-.53c-.06-.35-.32-.68-.7-.61-.19,0-.19.07-.15.25Z"/><path class="cls-2" d="M32.07,42.42s0,.16.1.19.11,0,.16,0,.12-.05.14,0,0,.07-.07.09l-.21.06-.26.09-.18.08-.18.07s-.07,0-.09,0,.05-.09.09-.1a.29.29,0,0,0,.15-.09s0-.12,0-.18l-.34-.89a.37.37,0,0,0-.05-.11s0,0-.06,0,0,0-.06,0l-.09.08-.11.06s-.06,0-.07,0,.09-.13.13-.16a2.27,2.27,0,0,0,.45-.37l0,0c.05,0,.07.06.08.09Z"/><path class="cls-2" d="M33.39,41.81a.3.3,0,0,1,0-.29.51.51,0,0,1,.12-.2s0,0,0,0,0,0,0,0a.42.42,0,0,1-.46-.59.73.73,0,0,1,.31-.34.82.82,0,0,1,.35-.13.37.37,0,0,1,.35.15.32.32,0,0,1-.06.38s0,0,0,0H34a.5.5,0,0,1,.52.22.47.47,0,0,1,0,.46.77.77,0,0,1-.32.35c-.22.14-.61.26-.78,0m.87-.48c-.09-.14-.25-.14-.41-.13a1.74,1.74,0,0,0-.22,0s0,.07,0,.1a.51.51,0,0,0,.07.24.33.33,0,0,0,.48.13.3.3,0,0,0,.12-.39m-.48-.58a.3.3,0,0,0-.05-.19.3.3,0,0,0-.42-.13.25.25,0,0,0-.1.34c.1.16.35.08.5.06h0s0,0,0-.07"/><path class="cls-2" d="M35.74,39.58a.46.46,0,0,1,.69,0,.71.71,0,0,1,.11.63,1.14,1.14,0,0,1-.34.6c-.09.08-.26.14-.36,0a.16.16,0,0,1,0-.22c.16-.14.27.09.38,0a.36.36,0,0,0,.11-.24.47.47,0,0,0-.12-.39.41.41,0,0,0-.6-.07,1.22,1.22,0,0,0-.2.25s0,0,0,0,0,0-.06,0,0-.13,0-.17.24-.51.08-.69a.21.21,0,0,0-.31,0,.41.41,0,0,0-.12.31s0,.07,0,.09,0,0-.06,0,0-.19,0-.26a.81.81,0,0,1,.24-.34.62.62,0,0,1,.25-.14.26.26,0,0,1,.28.06c.16.19,0,.49-.12.68Z"/><path class="cls-2" d="M38,39.36s0-.09,0-.12a1.17,1.17,0,0,0-.22-1.33.89.89,0,0,0-.34-.23c-.11,0-.27-.09-.37,0a.18.18,0,0,0,0,.17.37.37,0,0,0,.12.22.75.75,0,0,0,.33.2.28.28,0,0,0,.29,0l.06-.08a0,0,0,0,1,0,0c.07.06-.1.26-.14.3a.51.51,0,0,1-.71,0,.62.62,0,0,1,0-.87.7.7,0,0,1,1,0,1.13,1.13,0,0,1,.3.88,1.52,1.52,0,0,1-.1.48,1.91,1.91,0,0,1-.18.38.06.06,0,0,1-.08,0"/><path class="cls-2" d="M27.86,16.43l-3.8,0v.19l3.7,0V17l-7.4,0v-.37l3.7,0V16.4l-3.89,0v.75l7.78.06v-.76Z"/><path class="cls-2" d="M24.47,10.71h-.36v.19h.27c0,.1,0,.38,0,.38h.38v.19h-.38v.76h.75v-.38h.19v.38h.38v.57h-.38v.38h-.22v-.36h-.73s0,3.43,0,3.61h-.55c0-.18,0-3.6,0-3.6h-.74v.37h-.21v-.38h-.38c0-.13,0-.45,0-.57h.38v-.38h.19v.38h.75v-.76h-.38v-.19h.38v-.38h.27v-.19h-.47v.38h-.38v.56h.38c0,.1,0,.27,0,.38h-.37v-.37h-.57V12h-.38v1h.38v.38h.59V13h.36c0,.18,0,3.6,0,3.6h.92s0-3.43,0-3.61h.35v.36h.59V13h.39V12H25.5c0-.11,0-.38,0-.38h-.57V12h-.38v-.38h.38v-.57h-.37v-.38Z"/><path class="cls-2" d="M28.17,8.4a3.46,3.46,0,0,1-.86,1.23c-.36.24-.75.64-.86,1.82l.19,0c.1-1.1.45-1.46.77-1.68a3.43,3.43,0,0,0,.9-1.25c0,.29-.06.66-.06.66l.09.11c.1,0,.1,0,.19-1.07,0-.05,0-.16-.07-.18s-.14,0-.29.34"/><path class="cls-2" d="M28.62,8.66a3.64,3.64,0,0,1-1,1.17,2,2,0,0,0-1,1.67l.19,0c.18-1,.55-1.33.91-1.53a3.32,3.32,0,0,0,1-1.15,4.93,4.93,0,0,0-.08.57v0l.19,0A4.6,4.6,0,0,1,29,8.54s0-.15-.06-.18-.13,0-.3.3"/><path class="cls-2" d="M28.84,9.14a3.79,3.79,0,0,1-.91,1l-.11.06c-.35.19-.71.39-.87,1.43l.18,0c.15-1,.46-1.12.78-1.29l.11-.07A3.46,3.46,0,0,0,29,9.28a5.29,5.29,0,0,1-.18.7l.17.08a5.07,5.07,0,0,0,.25-1s0-.16-.06-.19-.14,0-.31.3"/><path class="cls-2" d="M29.48,9.67l-.72.29a3.94,3.94,0,0,0-1.67,1.7l.17.1a3.76,3.76,0,0,1,1.57-1.62l.5-.2a3.73,3.73,0,0,1-.37.67l.15.12a4.43,4.43,0,0,0,.49-.93l.09-.21Z"/><path class="cls-2" d="M29.51,10.4l-.75.23A3.35,3.35,0,0,0,27.08,12l.16.11a3.15,3.15,0,0,1,1.58-1.33l.51-.15a3.2,3.2,0,0,1-.53.67l.13.14a3.16,3.16,0,0,0,.69-.93l.11-.2Z"/><path class="cls-2" d="M28.82,11.28a3.7,3.7,0,0,0-1.65.77l.12.15a3.63,3.63,0,0,1,1.54-.73l.59,0a2.43,2.43,0,0,1-.89.67l.07.18a2.85,2.85,0,0,0,1.12-.89l.08-.09-.11-.05a3.32,3.32,0,0,0-.87,0"/><path class="cls-2" d="M26.79,11.64l.08.18c.14-.06.23-.06.27,0s0,.08,0,.16,0,0,.05,0v.17a.24.24,0,0,0,.12-.15.32.32,0,0,0-.05-.36.45.45,0,0,0-.48,0"/><path class="cls-2" d="M27.07,12.56l.27.06,0,0a.91.91,0,0,1-.29.14,1,1,0,0,1-.41-.1l-.11.15a1,1,0,0,0,.57.13c.27-.08.43-.2.43-.34s0-.14-.18-.18l-.32-.07Z"/><path class="cls-2" d="M26.8,13.81c.21,0,.33.16.33.26s-.08.08-.21.1a.34.34,0,0,1-.36-.22l-.18.07a.54.54,0,0,0,.65.32c.18,0,.3-.16.29-.29s-.21-.37-.49-.43Z"/><path class="cls-2" d="M26.33,14.61v.19c.18,0,.36,0,.45.12s.09.18.08.19-.06,0-.23,0a.34.34,0,0,1-.32-.24l-.17.08a.54.54,0,0,0,.46.35c.22,0,.37,0,.43-.11s-.05-.33-.1-.39a.67.67,0,0,0-.61-.2"/><path class="cls-2" d="M25.74,15.41l.1.05c.17.09.28.15.29.26s0,.2,0,.2-.07,0-.21-.1a.37.37,0,0,1-.16-.37h-.19a.58.58,0,0,0,.23.53c.18.14.32.18.43.12s.11-.32.11-.39c0-.23-.23-.33-.4-.41l-.09,0Z"/><path class="cls-2" d="M25.3,15.69a.75.75,0,0,1,.49.34c.05.13,0,.16,0,.16s-.09,0-.28,0a.49.49,0,0,1-.35-.47H25a.65.65,0,0,0,.47.64c.15.05.36.1.47,0s0-.3,0-.36a.94.94,0,0,0-.62-.45Z"/><path class="cls-2" d="M26.45,14.22l.06.18a.41.41,0,0,1,.51.08c.1.11.11.17.1.18s-.06,0-.23,0a.37.37,0,0,1-.34-.22l-.16.1a.52.52,0,0,0,.49.3c.23,0,.36,0,.41-.14s-.08-.33-.13-.39a.59.59,0,0,0-.71-.13"/><path class="cls-2" d="M26.33,13.31l.13.14a.53.53,0,0,1,.49-.13c.19,0,.25.07.25.08a.42.42,0,0,1-.3.16.43.43,0,0,1-.42-.08l-.1.16a.6.6,0,0,0,.55.11c.23,0,.47-.18.46-.36s-.14-.23-.42-.25a.71.71,0,0,0-.64.17"/><path class="cls-2" d="M26.45,12.9l.07.15-.05,0-.11.16a1.19,1.19,0,0,0,.75.14c.24,0,.39-.15.39-.28s-.34-.28-.45-.3a1.19,1.19,0,0,0-.6.15m.56,0c.27.05.3.11.3.11s-.07.07-.23.09a.87.87,0,0,1-.54-.08,1,1,0,0,1,.47-.12"/><path class="cls-2" d="M26.11,15H26v.19h.11c.19,0,.32,0,.38.08a.34.34,0,0,1,.09.19s-.06,0-.24,0a.4.4,0,0,1-.34-.28l-.17.08a.61.61,0,0,0,.49.39c.22,0,.36,0,.42-.11s-.05-.33-.1-.39a.57.57,0,0,0-.54-.16"/><g class="cls-3"><path class="cls-4" d="M25.69,16.3a3.54,3.54,0,0,0,.66.22"/></g><path class="cls-2" d="M25.65,16.39a3.12,3.12,0,0,0,.69.22v-.19a2.88,2.88,0,0,1-.63-.21Z"/><path class="cls-2" d="M26.06,11.85c-.2.33-.19.57-.18,1.28v.73c0,.51-.35.72-.72,1a1.89,1.89,0,0,0-.59.45.72.72,0,0,0-.19.6c.07.27.36.51.88.73l1.84,0,0-.19-1.23-.44-.07.18.75.27-1.29,0c-.42-.19-.67-.39-.72-.59a.48.48,0,0,1,.15-.44,1.92,1.92,0,0,1,.54-.41,1.28,1.28,0,0,0,.81-1.11v-.73c0-.71,0-.9.16-1.18s.35-.41.44-.39.06.08.07.12-.18.32-.3.43-.18.16-.14.24l0,.12.13-.06.15-.12a.66.66,0,0,1,.58-.1c.08,0,.11.05.11.06l-.1.07L27,12.4l-.3.17a1.12,1.12,0,0,0-.36.78,1.22,1.22,0,0,0,0,.26,2.51,2.51,0,0,1,.08.56.83.83,0,0,1-.12.45l0,.05a2,2,0,0,1-1,.86c-.24.1-.34.05-.34.05l-.11.15s.18.12.52,0a2,2,0,0,0,1.1-.92l0-.06a1.48,1.48,0,0,0,.07-1.16.84.84,0,0,1,.27-.85l.2-.12.31-.1c.14-.06.21-.14.21-.23a.25.25,0,0,0-.16-.22.81.81,0,0,0-.54,0,.56.56,0,0,0,.13-.31.13.13,0,0,0,0-.06.31.31,0,0,0-.21-.27c-.27,0-.58.37-.65.48"/><polygon class="cls-2" points="22.67 17 22.83 17.11 23.2 16.53 23.04 16.43 22.67 17"/><polygon class="cls-2" points="21.72 17 21.88 17.1 22.25 16.54 22.09 16.43 21.72 17"/><polygon class="cls-2" points="20.77 16.99 20.93 17.09 21.3 16.54 21.15 16.43 20.77 16.99"/><rect class="cls-2" x="25.1" y="16.44" width="0.19" height="0.68" transform="translate(-5.07 15.9) rotate(-32)"/><polygon class="cls-2" points="25.88 16.57 26.23 17.13 26.4 17.03 26.03 16.46 25.88 16.57"/><polygon class="cls-2" points="26.82 16.57 27.19 17.14 27.34 17.03 26.98 16.47 26.82 16.57"/><polygon class="cls-2" points="23.6 17.01 23.76 17.11 24.13 16.52 23.97 16.42 23.6 17.01"/><rect class="cls-2" x="24.14" y="16.47" width="0.19" height="0.65" transform="translate(-5.24 16.21) rotate(-33.59)"/><g class="cls-5"><path class="cls-4" d="M25.09,15.67a.57.57,0,0,0,.41.57c.41.14.5,0,.36-.25a.85.85,0,0,0-.29-.27,2.17,2.17,0,0,0-.26-.12.82.82,0,0,1,.55.39c.1.24.05.39-.37.26a.58.58,0,0,1-.4-.57"/></g><path class="cls-2" d="M25.27,15.69l.07,0a.57.57,0,0,1,.22.11.58.58,0,0,1,.21.2h0a.66.66,0,0,1,0,.13v0a.46.46,0,0,1-.28,0,.5.5,0,0,1-.35-.48H25a.67.67,0,0,0,.47.64.79.79,0,0,0,.34,0,.22.22,0,0,0,.13,0h0s0,0,0,0l0,0a.33.33,0,0,0,0-.13.33.33,0,0,0-.08-.22.58.58,0,0,0-.13-.15.87.87,0,0,0-.14-.12l-.05,0-.27-.13h0l-.87-.2Z"/><path class="cls-2" d="M26.18,15.79a1.69,1.69,0,0,1,.86.56,1.53,1.53,0,0,1-1.25-.62l-.16.11c.31.46.76.66,1.65.73l.24,0-.16-.18a2.14,2.14,0,0,0-1.12-.8Z"/><path class="cls-2" d="M25.74,15.41l.1.05c.17.09.28.15.29.26s0,.2,0,.2-.07,0-.21-.1a.37.37,0,0,1-.16-.37h-.19a.58.58,0,0,0,.23.53c.18.14.32.18.43.12s.11-.32.11-.39c0-.23-.23-.33-.4-.41l-.09,0Z"/><path class="cls-2" d="M25.26,15.66a.86.86,0,0,1,.52.37c0,.1,0,.14,0,.15s-.09,0-.27,0a.51.51,0,0,1-.34-.51H25a.72.72,0,0,0,.47.69c.23.07.38.06.47,0s.1-.16,0-.36a1,1,0,0,0-.65-.48Z"/><path class="cls-2" d="M26.25,14.67a1.93,1.93,0,0,1-1,.85c-.24.11-.34.05-.34.05l-.11.16s.18.11.52,0a2,2,0,0,0,1.1-.92l0,0-.16-.1Z"/><path class="cls-2" d="M26.32,13.59l.09.48h.19a.34.34,0,0,1,.39-.24l0-.19-.73-.21Zm.21.12.11,0-.08.06a.32.32,0,0,1,0-.09"/><path class="cls-2" d="M19,12.68l-.23.06.2.11a2.09,2.09,0,0,0,1.1.4v-.2a1.59,1.59,0,0,1-.77-.24,2.33,2.33,0,0,1,1.61.13l.06-.18a2.61,2.61,0,0,0-2-.08"/><path class="cls-2" d="M18.94,12.13l-.26,0,.22.13a4.33,4.33,0,0,0,.87.43l.05-.19a2.94,2.94,0,0,1-.58-.27,2,2,0,0,1,1,.08l.6.16,0-.18-.58-.16a2.33,2.33,0,0,0-1.39,0"/><path class="cls-2" d="M19.33,13.26l-.23.07.22.1a2.39,2.39,0,0,0,1.07.27v-.19a2.21,2.21,0,0,1-.73-.15A2.24,2.24,0,0,1,21,13.28l0-.18a2.58,2.58,0,0,0-1.69.16"/><path class="cls-2" d="M19.53,14l-.2.12.23.05A1.9,1.9,0,0,0,21,14.09l-.09-.17a1.47,1.47,0,0,1-1,.09,2.21,2.21,0,0,1,1.15-.4v-.19a2.66,2.66,0,0,0-1.46.56"/><path class="cls-2" d="M19.63,14.4l-.21.11.22.07a2.21,2.21,0,0,0,1.36.05l-.06-.18a1.87,1.87,0,0,1-1,0,2.19,2.19,0,0,1,1-.29V14a2.76,2.76,0,0,0-1.3.43"/><path class="cls-2" d="M19.77,14.91l-.21.1.22.07a2.07,2.07,0,0,0,1.43,0l-.07-.18a1.78,1.78,0,0,1-1,0,2.39,2.39,0,0,1,.89-.28v-.19a3,3,0,0,0-1.22.43"/><path class="cls-2" d="M20.78,16.37l-.16.17.24,0c.89-.05,1.35-.24,1.66-.71l-.15-.1a1.59,1.59,0,0,1-1.27.6,1.76,1.76,0,0,1,.84-.54l-.05-.18a2.1,2.1,0,0,0-1.11.78"/><path class="cls-2" d="M20,15.52l-.19.13.23,0a2.09,2.09,0,0,0,1.5-.19l-.1-.16a1.78,1.78,0,0,1-1.11.19,2.4,2.4,0,0,1,1-.42l0-.19a2.88,2.88,0,0,0-1.28.6"/><path class="cls-2" d="M20.22,15.94l-.19.13.23,0a2,2,0,0,0,1.66-.3l-.12-.15a1.66,1.66,0,0,1-1.25.29,2.31,2.31,0,0,1,1-.42l0-.19a3,3,0,0,0-1.27.6"/><path class="cls-2" d="M19.78,8c-.09,0-.08.12-.08.18.09,1.08.09,1.08.19,1.08L20,9.14s0-.37-.06-.66a3.54,3.54,0,0,0,.88,1.27c.32.21.66.58.75,1.68l.19,0c-.1-1.17-.48-1.58-.84-1.82a3.62,3.62,0,0,1-.84-1.25C19.91,8,19.88,8,19.78,8"/><path class="cls-2" d="M19.31,8.29c-.09,0-.06.13,0,.18a5.19,5.19,0,0,1,.13.89l.19,0v0a4.65,4.65,0,0,0-.08-.57,3.42,3.42,0,0,0,1,1.16c.36.2.72.49.89,1.54l.19,0c-.18-1.14-.6-1.47-1-1.69a3.65,3.65,0,0,1-.95-1.19c-.17-.28-.2-.34-.3-.3"/><path class="cls-2" d="M19.07,8.77C19,8.8,19,8.9,19,9a4.83,4.83,0,0,0,.24,1l.17-.08a4.73,4.73,0,0,1-.17-.7,3.58,3.58,0,0,0,.93,1.09l.11.06c.33.18.63.35.76,1.31l.19,0c-.15-1-.5-1.25-.85-1.44l-.11-.07a3.48,3.48,0,0,1-.89-1.06c-.17-.27-.22-.34-.32-.3"/><path class="cls-2" d="M18.61,9.72a4.54,4.54,0,0,0,.48.94l.15-.12a3.53,3.53,0,0,1-.36-.68l.5.21a3.8,3.8,0,0,1,1.55,1.64l.17-.09A3.81,3.81,0,0,0,19.45,9.9l-.93-.39Z"/><path class="cls-2" d="M18.59,10.46a3,3,0,0,0,.68.94l.12-.14a2.74,2.74,0,0,1-.51-.68l.5.16A3.21,3.21,0,0,1,21,12.1L21.1,12a3.32,3.32,0,0,0-1.66-1.43l-1-.3Z"/><path class="cls-2" d="M18.5,11.19l-.11.05.08.1a2.76,2.76,0,0,0,1.11.89l.07-.17a2.47,2.47,0,0,1-.88-.68l.58,0a3.39,3.39,0,0,1,1.54.74L21,12a3.63,3.63,0,0,0-1.65-.79,3.22,3.22,0,0,0-.87,0"/><path class="cls-2" d="M20.92,11.62a.31.31,0,0,0-.06.36c0,.08.07.13.12.14l.08-.17,0,0a.24.24,0,0,1,0-.17s.14,0,.28,0l.08-.18c-.21-.08-.38-.08-.48,0"/><path class="cls-2" d="M20.78,12.39a.19.19,0,0,0-.17.19c0,.13.15.26.42.34a1.16,1.16,0,0,0,.58-.12l-.11-.16a1,1,0,0,1-.42.09c-.22-.06-.28-.14-.29-.16l.31-.05v-.19Z"/><path class="cls-2" d="M20.83,14c0,.12.11.24.29.29a.54.54,0,0,0,.65-.31l-.17-.08a.33.33,0,0,1-.37.21A.28.28,0,0,1,21,14c0-.1.13-.22.34-.26l0-.19a.57.57,0,0,0-.49.43"/><path class="cls-2" d="M21.2,14.77c-.05.06-.19.25-.1.39s.2.14.42.12a.54.54,0,0,0,.47-.35l-.17-.08a.37.37,0,0,1-.32.24c-.18,0-.23,0-.24,0s0-.06.09-.19.27-.12.45-.11v-.19a.65.65,0,0,0-.61.19"/><path class="cls-2" d="M22.21,15.27c-.16.07-.37.17-.4.4,0,.07,0,.3.11.39s.24,0,.43-.11a.58.58,0,0,0,.23-.53h-.19a.35.35,0,0,1-.16.37c-.14.11-.2.11-.21.11s0-.06,0-.21.13-.17.3-.25l.09,0-.08-.17Z"/><path class="cls-2" d="M22.16,15.93c0,.06-.1.25,0,.37s.32.07.47,0a.68.68,0,0,0,.49-.63l-.19,0a.49.49,0,0,1-.35.47c-.2.06-.27,0-.28,0s0,0,0-.17a.76.76,0,0,1,.49-.33l0-.18a.94.94,0,0,0-.63.44"/><path class="cls-2" d="M21,14.31c0,.06-.21.23-.14.38s.19.16.41.15a.54.54,0,0,0,.5-.29l-.16-.1a.36.36,0,0,1-.34.21c-.18,0-.23,0-.24-.05s0-.06.11-.17a.41.41,0,0,1,.51-.08l.07-.18a.6.6,0,0,0-.72.13"/><path class="cls-2" d="M21.2,13.09c-.28,0-.42.11-.43.26s.23.32.46.36a.62.62,0,0,0,.55-.1l-.1-.16a.44.44,0,0,1-.42.07c-.18,0-.3-.13-.3-.17a.49.49,0,0,1,.25-.07.56.56,0,0,1,.5.14l.13-.14a.74.74,0,0,0-.64-.19"/><path class="cls-2" d="M21.12,12.71c-.11,0-.45.09-.45.29s.14.24.39.28a1.06,1.06,0,0,0,.74-.12L21.7,13l-.05,0,.07-.16a1.19,1.19,0,0,0-.6-.15m0,.19c.06,0,.19,0,.47.13a.89.89,0,0,1-.54.07c-.16,0-.23-.09-.23-.1a.61.61,0,0,1,.3-.1"/><path class="cls-2" d="M21.48,15.16c0,.06-.19.25-.1.4s.2.14.42.11a.65.65,0,0,0,.5-.38l-.17-.09a.42.42,0,0,1-.35.28c-.18,0-.23,0-.24,0s0-.06.09-.18.2-.09.39-.08h.1V15H22c-.19,0-.42,0-.55.15"/><g class="cls-6"><path class="cls-4" d="M22.44,16.28a3.26,3.26,0,0,1-.67.2"/></g><path class="cls-4" d="M21.77,16.39v.19a3.11,3.11,0,0,0,.7-.21l-.07-.18a2.77,2.77,0,0,1-.63.2"/><path class="cls-2" d="M21.48,11.34c-.08,0-.18.07-.22.26v.06a.55.55,0,0,0,.12.31.81.81,0,0,0-.54,0c-.14.07-.16.16-.16.21s.07.17.2.24l.31.1.2.12a.84.84,0,0,1,.26.86,1.45,1.45,0,0,0,.06,1.16l0,.05a2,2,0,0,0,1.09.94c.34.15.49.06.52,0l-.11-.16s-.09.06-.34-.05a1.91,1.91,0,0,1-1-.87l0-.05a1.35,1.35,0,0,1,0-1,1.07,1.07,0,0,0-.32-1l-.3-.17L21,12.28l-.09-.08a.37.37,0,0,1,.11,0,.69.69,0,0,1,.58.1l.25.2.08-.13c0-.08,0-.14-.15-.24s-.32-.31-.29-.44,0-.11.06-.11.34.2.45.39.16.47.14,1.18l0,.74c0,.61.42.87.81,1.11a2,2,0,0,1,.53.42c.13.18.18.31.14.44s-.31.4-.77.59l-1.26,0,.76-.27-.06-.17L21,16.34l0,.19,1.8.06c.57-.23.86-.47.93-.73a.71.71,0,0,0-.18-.6,2,2,0,0,0-.58-.47c-.38-.23-.73-.45-.72-.95l0-.73c0-.72,0-1-.16-1.29-.08-.11-.38-.53-.65-.48"/><g class="cls-7"><path class="cls-4" d="M23,15.66a.57.57,0,0,1-.41.56c-.42.13-.51,0-.37-.26a.89.89,0,0,1,.3-.26,2.17,2.17,0,0,1,.26-.12.85.85,0,0,0-.56.39c-.09.23-.05.39.37.26a.61.61,0,0,0,.42-.57"/></g><path class="cls-2" d="M22.8,15.49h0l-.27.13-.05,0-.14.11a.92.92,0,0,0-.14.15s0,0,0,0a.44.44,0,0,0-.07.2.21.21,0,0,0,0,.13l0,0h0a.25.25,0,0,0,.13.05.79.79,0,0,0,.34,0,.68.68,0,0,0,.48-.63H23a.49.49,0,0,1-.35.47c-.19.05-.26,0-.28,0s0,0,0,0a.38.38,0,0,1,0-.14h0a1.13,1.13,0,0,1,.22-.2.64.64,0,0,1,.22-.1l.89-.4Z"/><path class="cls-2" d="M20.76,16.37l-.16.17h.23a1.92,1.92,0,0,0,1.67-.72l-.16-.1a1.58,1.58,0,0,1-1.26.6,1.72,1.72,0,0,1,.87-.55l-.06-.18a2.11,2.11,0,0,0-1.13.79"/><path class="cls-2" d="M22.21,15.27c-.16.07-.37.17-.4.4,0,.07,0,.3.11.39s.24,0,.43-.11a.58.58,0,0,0,.23-.53h-.19a.35.35,0,0,1-.16.37c-.14.11-.2.11-.21.11s0-.06,0-.21.13-.17.3-.25l.09,0-.08-.17Z"/><path class="cls-2" d="M22.18,15.94c-.08.19,0,.29,0,.35s.25.1.47,0a.69.69,0,0,0,.48-.68H23a.53.53,0,0,1-.35.51c-.17.05-.25,0-.27,0s0-.06,0-.15a.86.86,0,0,1,.52-.37l0-.18a1,1,0,0,0-.65.48"/><path class="cls-2" d="M21.71,14.69l0,.05a2,2,0,0,0,1.09.93c.34.16.49.07.52.05l-.11-.16s-.09,0-.33-.05a1.9,1.9,0,0,1-1-.88l0-.05Z"/><path class="cls-2" d="M21.72,13.45l-.58.16,0,.19a.35.35,0,0,1,.39.25h.18l.13-.63Zm-.1.22a.44.44,0,0,1,0,.1.27.27,0,0,0-.08-.07l.1,0"/><polygon class="cls-2" points="23.79 39.86 23.97 40.09 34.22 31.66 34.04 31.45 23.79 39.86"/><rect class="cls-2" x="13.16" y="29.59" width="14.11" height="0.29" transform="translate(-9.67 49.74) rotate(-89.59)"/><path class="cls-4" d="M13.91,31.44l10,8.56Z"/><rect class="cls-2" x="18.78" y="29.12" width="0.29" height="13.19" transform="translate(-20.53 26.94) rotate(-49.53)"/><rect class="cls-2" x="20.86" y="29.6" width="14" height="0.28" transform="translate(-2.07 57.39) rotate(-89.6)"/><rect class="cls-2" x="7.05" y="24.28" width="13.69" height="0.28" transform="translate(-10.58 38.23) rotate(-89.8)"/><rect class="cls-2" x="27.33" y="24.57" width="13.68" height="0.28" transform="translate(9.22 58.71) rotate(-89.59)"/><path class="cls-2" d="M26,20.78a.71.71,0,0,1,.11.59c.94-.23,1.33-1,.55-1.64A1.15,1.15,0,0,1,26,20.78m-1.92-3h0L14,17.76,24,26h0L34.23,17.9Zm-3.53,1.58a.56.56,0,0,0,.21-.36c0-.05-.13-.33,0-.06s.25.51.08.67-.37.25-.37.34a.5.5,0,0,1,.08-.59M26,21.7l-.06,0a2.74,2.74,0,0,1-1.44.41c-.19,0-.24.26-.09.28a1.79,1.79,0,0,1,.73.34c.12.14.06.26-.19.35a1.77,1.77,0,0,1-.92.1,1.67,1.67,0,0,1-.91-.11q-.36-.15-.18-.36a1.72,1.72,0,0,1,.74-.32c.14,0,.09-.26-.1-.29a2.43,2.43,0,0,1-1.41-.4l-.09,0c-.16,0-1-.21-1.09-.78s-.48-.32-.72-.42c0,0,0-.35,0-.35.49,0,.71,0,.95.28s.26.33.73.38c.16,0,.22-.57.88-.87a2.15,2.15,0,0,1,.95-.54c.12,0,.06-.29.27-.39l0,0c.21.1.1.35.22.38a2,2,0,0,1,.95.55c.65.31.45.54.61.51.36-.07.59-.61.42-1.17h0a1.48,1.48,0,0,1,1,.61c.38.81-.15,1.57-1.25,1.78"/></svg>