<svg width="263" height="19" viewBox="0 0 263 19" fill="none" xmlns="http://www.w3.org/2000/svg">
<path d="M13.008 18H15.648L8.064 1.056L0.096 18H2.736L4.488 14.136H11.328L13.008 18ZM5.496 11.832L7.968 6.408L10.344 11.832H5.496ZM18.67 1.992V12.288C18.67 13.56 18.934 15.096 20.158 16.44C20.998 17.352 22.414 18.312 24.598 18.312C26.782 18.312 28.198 17.352 29.038 16.44C30.262 15.096 30.526 13.56 30.526 12.288V1.992H28.078V11.64C28.078 12.504 28.054 13.56 27.574 14.4C27.094 15.216 26.014 16.056 24.598 16.056C23.182 16.056 22.102 15.216 21.622 14.4C21.142 13.56 21.118 12.504 21.118 11.64V1.992H18.67ZM44.2531 4.392C43.9171 3.72 43.4611 3.168 43.0291 2.784C42.5251 2.352 41.5411 1.704 39.8131 1.704C36.8131 1.704 35.1331 3.768 35.1331 5.928C35.1331 8.328 37.0771 9.432 38.3971 9.984L39.9331 10.632C40.9891 11.064 42.2371 11.736 42.2371 13.368C42.2371 14.976 41.0851 16.056 39.5971 16.056C38.6371 16.056 37.9651 15.672 37.5091 15.096C37.1251 14.592 36.8371 13.848 36.8371 13.056L34.4131 13.584C34.5091 14.688 34.8931 15.744 35.7571 16.704C36.5731 17.616 37.6771 18.312 39.5251 18.312C42.5251 18.312 44.6851 16.224 44.6851 13.176C44.6851 11.352 43.8691 9.672 40.9171 8.472L39.3091 7.824C37.7491 7.2 37.5811 6.36 37.5811 5.88C37.5811 4.848 38.3491 3.96 39.8371 3.96C40.5331 3.96 41.0611 4.128 41.5651 4.536C41.9251 4.848 42.1411 5.184 42.2851 5.544L44.2531 4.392ZM56.3914 4.296V1.992H46.5994V4.296H50.2714V18H52.7194V4.296H56.3914ZM59.545 1.992V18H61.993V1.992H59.545ZM69.2743 18V6.816L80.8903 18.984V1.992H78.4423V13.08L66.8263 0.912V18H69.2743ZM92.3341 1.992V18H94.7821V11.496H95.8861C97.0621 11.496 98.5261 11.328 99.7981 10.248C101.118 9.12 101.358 7.68 101.358 6.744C101.358 5.28 100.71 3.744 99.3661 2.856C98.2141 2.088 96.8461 1.992 95.8621 1.992H92.3341ZM94.7821 4.248H95.8621C98.6461 4.248 99.0061 5.832 99.0061 6.72C99.0061 8.208 97.9981 9.24 95.8861 9.24H94.7821V4.248ZM104.865 1.992V12.288C104.865 13.56 105.129 15.096 106.353 16.44C107.193 17.352 108.609 18.312 110.793 18.312C112.977 18.312 114.393 17.352 115.233 16.44C116.457 15.096 116.721 13.56 116.721 12.288V1.992H114.273V11.64C114.273 12.504 114.249 13.56 113.769 14.4C113.289 15.216 112.209 16.056 110.793 16.056C109.377 16.056 108.297 15.216 107.817 14.4C107.337 13.56 107.313 12.504 107.313 11.64V1.992H104.865ZM121.568 1.992V18H125.576C126.8 18 128.792 17.784 130.064 16.44C130.832 15.624 131.12 14.712 131.12 13.56C131.12 12.576 130.928 11.472 130.064 10.56C129.272 9.744 128.288 9.48 128 9.408C128.36 9.24 128.84 8.928 129.2 8.304C129.584 7.68 129.68 7.032 129.68 6.408C129.68 5.088 129.272 4.056 128.408 3.24C127.352 2.256 126.056 1.992 123.992 1.992H121.568ZM124.016 4.296H124.856C125.552 4.296 126.248 4.368 126.8 4.896C127.304 5.376 127.376 5.952 127.376 6.432C127.376 6.984 127.304 7.728 126.752 8.256C126.176 8.808 125.36 8.88 124.76 8.88H124.016V4.296ZM124.016 10.896H125.552C126.416 10.896 127.4 10.968 128.072 11.616C128.48 12.024 128.72 12.648 128.72 13.296C128.72 14.016 128.408 14.688 127.928 15.072C127.304 15.576 126.2 15.696 125.504 15.696H124.016V10.896ZM135.201 1.992V18H142.353V15.696H137.649V1.992H135.201ZM145.647 1.992V18H148.095V1.992H145.647ZM164.784 2.856C163.392 1.968 161.976 1.704 160.512 1.704C158.304 1.704 156.384 2.232 154.728 3.792C153.384 5.064 152.16 7.104 152.16 10.056C152.16 12.312 152.856 14.352 154.728 16.104C155.664 16.992 157.488 18.312 160.392 18.312C161.496 18.312 163.176 18.072 164.784 17.112V14.208C163.872 15.072 162.384 16.056 160.464 16.056C157.056 16.056 154.608 13.44 154.608 10.056C154.608 6.528 156.96 3.96 160.44 3.96C161.352 3.96 163.008 4.128 164.784 5.736V2.856ZM175.412 1.992V18H182.564V15.696H177.86V1.992H175.412ZM185.858 1.992V18H188.306V1.992H185.858ZM193.139 1.992V18H197.147C198.371 18 200.363 17.784 201.635 16.44C202.403 15.624 202.691 14.712 202.691 13.56C202.691 12.576 202.499 11.472 201.635 10.56C200.843 9.744 199.859 9.48 199.571 9.408C199.931 9.24 200.411 8.928 200.771 8.304C201.155 7.68 201.251 7.032 201.251 6.408C201.251 5.088 200.843 4.056 199.979 3.24C198.923 2.256 197.627 1.992 195.563 1.992H193.139ZM195.587 4.296H196.427C197.123 4.296 197.819 4.368 198.371 4.896C198.875 5.376 198.947 5.952 198.947 6.432C198.947 6.984 198.875 7.728 198.323 8.256C197.747 8.808 196.931 8.88 196.331 8.88H195.587V4.296ZM195.587 10.896H197.123C197.987 10.896 198.971 10.968 199.643 11.616C200.051 12.024 200.291 12.648 200.291 13.296C200.291 14.016 199.979 14.688 199.499 15.072C198.875 15.576 197.771 15.696 197.075 15.696H195.587V10.896ZM206.772 1.992V18H209.22V11.448H209.652L214.236 18H217.188L212.196 11.16C214.332 10.68 215.748 9 215.748 6.696C215.748 6 215.604 4.104 213.852 2.928C212.82 2.232 211.572 1.992 209.628 1.992H206.772ZM209.22 4.248H210.06C211.26 4.248 213.396 4.464 213.396 6.72C213.396 9.264 210.66 9.336 209.988 9.336H209.22V4.248ZM231.68 18H234.32L226.736 1.056L218.768 18H221.408L223.16 14.136H230L231.68 18ZM224.168 11.832L226.64 6.408L229.016 11.832H224.168ZM237.342 1.992V18H239.79V11.448H240.222L244.806 18H247.758L242.766 11.16C244.902 10.68 246.318 9 246.318 6.696C246.318 6 246.174 4.104 244.422 2.928C243.39 2.232 242.142 1.992 240.198 1.992H237.342ZM239.79 4.248H240.63C241.83 4.248 243.966 4.464 243.966 6.72C243.966 9.264 241.23 9.336 240.558 9.336H239.79V4.248ZM254.498 18H256.946V11.088L262.202 1.992H259.418L255.722 8.4L252.026 1.992H249.242L254.498 11.088V18Z" fill="white"/>
</svg>
