<?xml version="1.0" encoding="utf-8"?>
<!-- Generator: Adobe Illustrator 27.8.1, SVG Export Plug-In . SVG Version: 6.00 Build 0)  -->
<svg version="1.1" id="Layer_1" xmlns="http://www.w3.org/2000/svg" xmlns:xlink="http://www.w3.org/1999/xlink" x="0px" y="0px"
	 viewBox="0 0 212.6 16.1" style="enable-background:new 0 0 212.6 16.1;" xml:space="preserve">
<style type="text/css">
	.st0{fill:#FFFFFF;}
</style>
<g>
	<path class="st0" d="M3.7,11.8L2,15.5H0L7.1,0.1l7.1,15.5h-2l-1.7-3.7H3.7z M7.1,4.1l-2.6,6h5.3L7.1,4.1z"/>
	<path class="st0" d="M15.7,0.7v8.7c0,2.4,0.7,4.7,3.6,4.7c2.9,0,3.6-2.2,3.6-4.7V0.7h1.8v9.4c0,3.3-2,5.8-5.4,5.8s-5.4-2.5-5.4-5.8
		V0.7H15.7z"/>
	<path class="st0" d="M33.2,3.5c-0.6-0.9-1.3-1.4-2.4-1.4c-1.2,0-2.5,0.8-2.5,2.1c0,1.2,1.1,1.8,2.1,2.1l1.1,0.4
		c2.1,0.8,3.7,2,3.7,4.5c0,2.7-2.1,4.6-4.7,4.6c-2.4,0-4.3-1.8-4.6-4.1l1.9-0.4c0,1.6,1.3,2.8,2.9,2.8c1.6,0,2.7-1.3,2.7-2.9
		c0-1.6-1.3-2.3-2.6-2.8l-1-0.4c-1.7-0.7-3.2-1.7-3.2-3.8c0-2.4,2.1-3.8,4.4-3.8c1.7,0,3,0.8,3.8,2.2L33.2,3.5z"/>
	<path class="st0" d="M40.7,15.5h-1.8V2.4h-3.5V0.7h8.9v1.7h-3.5V15.5z"/>
	<path class="st0" d="M47.5,15.5h-1.8V0.7h1.8V15.5z"/>
	<path class="st0" d="M49.3,0l11.1,11.7V0.7h1.8v15.4L51.1,4.5v11h-1.8V0z"/>
	<path class="st0" d="M79.3,6.7v-6h1.8v14.8h-1.8V8.4h-7.1v7.1h-1.8V0.7h1.8v6H79.3z"/>
	<path class="st0" d="M84.9,15.5H83V0.7h1.8V15.5z"/>
	<path class="st0" d="M93.8,3.5c-0.6-0.9-1.3-1.4-2.4-1.4c-1.2,0-2.5,0.8-2.5,2.1C89,5.4,90.1,6,91,6.3l1.1,0.4
		c2.1,0.8,3.7,2,3.7,4.5c0,2.7-2.1,4.6-4.7,4.6c-2.4,0-4.3-1.8-4.6-4.1l1.9-0.4c0,1.6,1.3,2.8,2.9,2.8c1.6,0,2.7-1.3,2.7-2.9
		c0-1.6-1.3-2.3-2.6-2.8l-1-0.4c-1.7-0.7-3.2-1.7-3.2-3.8c0-2.4,2.1-3.8,4.4-3.8c1.7,0,3,0.8,3.8,2.2L93.8,3.5z"/>
	<path class="st0" d="M101.4,15.5h-1.8V2.4H96V0.7h8.9v1.7h-3.5V15.5z"/>
	<path class="st0" d="M120.1,8.1c0,4.4-3.5,7.7-7.8,7.7s-7.8-3.3-7.8-7.7c0-4.2,3.5-7.7,7.8-7.7S120.1,3.9,120.1,8.1z M118.2,8.1
		c0-3.3-2.4-6-5.9-6s-5.9,2.7-5.9,6c0,3.4,2.7,6,5.9,6S118.2,11.5,118.2,8.1z"/>
	<path class="st0" d="M130.7,15.5h-2.2l-4.4-6.3h-0.8v6.3h-1.8V0.7h2.2c1.3,0,2.7,0,3.9,0.7c1.2,0.7,1.9,2.1,1.9,3.5
		c0,2.1-1.4,3.9-3.6,4.1L130.7,15.5z M123.3,7.7h0.6c1.9,0,3.9-0.4,3.9-2.7c0-2.3-2.2-2.7-4-2.7h-0.5V7.7z"/>
	<path class="st0" d="M129.4,0.7h2.1l3.6,6.3l3.6-6.3h2.1l-4.8,8.4v6.4h-1.8V9.1L129.4,0.7z"/>
	<path class="st0" d="M157.5,3.5c-1.1-0.9-2.5-1.5-3.9-1.5c-3.3,0-5.9,2.8-5.9,6.1c0,3.2,2.5,6,5.8,6c1.5,0,2.9-0.6,4-1.5v2.2
		c-1.1,0.7-2.6,1-3.9,1c-4.2,0-7.7-3.4-7.7-7.6c0-4.4,3.5-7.8,7.9-7.8c1.3,0,2.6,0.3,3.7,1V3.5z"/>
	<path class="st0" d="M159.3,0.7h8v1.7h-6.1v4.1h5.9v1.7h-5.9v5.6h6.1v1.7h-8V0.7z"/>
	<path class="st0" d="M169,0l11.1,11.7V0.7h1.8v15.4L170.8,4.5v11H169V0z"/>
	<path class="st0" d="M188.6,15.5h-1.8V2.4h-3.5V0.7h8.9v1.7h-3.5V15.5z"/>
	<path class="st0" d="M193.5,0.7h8v1.7h-6.1v4.1h5.9v1.7h-5.9v5.6h6.1v1.7h-8V0.7z"/>
	<path class="st0" d="M212.6,15.5h-2.2L206,9.3h-0.8v6.3h-1.8V0.7h2.2c1.3,0,2.7,0,3.9,0.7c1.2,0.7,1.9,2.1,1.9,3.5
		c0,2.1-1.4,3.9-3.6,4.1L212.6,15.5z M205.2,7.7h0.6c1.9,0,3.9-0.4,3.9-2.7c0-2.3-2.2-2.7-4-2.7h-0.5V7.7z"/>
</g>
</svg>
