<?xml version="1.0" encoding="utf-8"?>
<!-- Generator: Adobe Illustrator 27.8.1, SVG Export Plug-In . SVG Version: 6.00 Build 0)  -->
<svg version="1.1" id="Layer_1" xmlns="http://www.w3.org/2000/svg" xmlns:xlink="http://www.w3.org/1999/xlink" x="0px" y="0px"
	 viewBox="0 0 181 15" style="enable-background:new 0 0 181 15;" xml:space="preserve">
<style type="text/css">
	.st0{clip-path:url(#SVGID_00000059995760918319424780000004077589867302801806_);fill:#FFFFFF;}
	.st1{clip-path:url(#SVGID_00000059995760918319424780000004077589867302801806_);}
	.st2{clip-path:url(#SVGID_00000002364299687477483150000007572047960976618113_);fill:#FFFFFF;}
</style>
<g id="Artwork_83_00000075139203811788098130000012348891373585159336_">
	<g>
		<defs>
			<rect id="SVGID_1_" width="181" height="15"/>
		</defs>
		<clipPath id="SVGID_00000142880885998011566910000016521493301081683079_">
			<use xlink:href="#SVGID_1_"  style="overflow:visible;"/>
		</clipPath>
		<path style="clip-path:url(#SVGID_00000142880885998011566910000016521493301081683079_);fill:#FFFFFF;" d="M6.6,3.8L9,9.4H4.1
			L6.6,3.8z M0,14.4h1.8L3.4,11h6.3l1.6,3.4h1.8L6.6,0.1L0,14.4z"/>
		<g style="clip-path:url(#SVGID_00000142880885998011566910000016521493301081683079_);">
			<defs>
				<rect id="SVGID_00000016792968255304156560000013543427986183243149_" y="0" width="181" height="15"/>
			</defs>
			<clipPath id="SVGID_00000141437034306807986220000006544527770773604265_">
				<use xlink:href="#SVGID_00000016792968255304156560000013543427986183243149_"  style="overflow:visible;"/>
			</clipPath>
			<path style="clip-path:url(#SVGID_00000141437034306807986220000006544527770773604265_);fill:#FFFFFF;" d="M14.5,0.7v8.1
				c0,2.2,0.7,4.3,3.3,4.3c2.6,0,3.3-2.1,3.3-4.3V0.7h1.7v8.7c0,3-1.9,5.3-5,5.3c-3.2,0-5-2.3-5-5.3V0.7H14.5z"/>
			<path style="clip-path:url(#SVGID_00000141437034306807986220000006544527770773604265_);fill:#FFFFFF;" d="M30.6,3.3
				C30.1,2.4,29.5,2,28.4,2c-1.1,0-2.3,0.7-2.3,2c0,1.1,1.1,1.6,1.9,2l1,0.4c2,0.8,3.4,1.8,3.4,4.1c0,2.5-1.9,4.3-4.4,4.3
				c-2.2,0-4-1.6-4.3-3.8l1.7-0.4c0,1.5,1.2,2.6,2.7,2.6c1.5,0,2.5-1.2,2.5-2.7c0-1.5-1.2-2.1-2.4-2.6l-0.9-0.4
				c-1.6-0.7-3-1.6-3-3.5c0-2.2,2-3.6,4.1-3.6c1.5,0,2.8,0.7,3.5,2.1L30.6,3.3z"/>
			<polygon style="clip-path:url(#SVGID_00000141437034306807986220000006544527770773604265_);fill:#FFFFFF;" points="37.8,14.4 
				36.1,14.4 36.1,2.2 32.8,2.2 32.8,0.7 41.1,0.7 41.1,2.2 37.8,2.2 			"/>
			
				<rect x="42.4" y="0.7" style="clip-path:url(#SVGID_00000141437034306807986220000006544527770773604265_);fill:#FFFFFF;" width="1.7" height="13.8"/>
			<polygon style="clip-path:url(#SVGID_00000141437034306807986220000006544527770773604265_);fill:#FFFFFF;" points="46,0 
				56.4,10.8 56.4,0.7 58.1,0.7 58.1,15 47.7,4.2 47.7,14.4 46,14.4 			"/>
			<path style="clip-path:url(#SVGID_00000141437034306807986220000006544527770773604265_);fill:#FFFFFF;" d="M66,14.4h-1.7V0.7h2
				c4.2,0,5.5,1.5,5.5,4c0,2.9-2.2,4-4.8,4h-1V14.4z M66,7.1h0.5c1.8,0,3.6-0.3,3.6-2.5c0-2.2-2-2.4-3.7-2.4H66V7.1z"/>
			<path style="clip-path:url(#SVGID_00000141437034306807986220000006544527770773604265_);fill:#FFFFFF;" d="M74.9,0.7v8.1
				c0,2.2,0.7,4.3,3.3,4.3c2.6,0,3.3-2.1,3.3-4.3V0.7h1.7v8.7c0,3-1.9,5.3-5,5.3c-3.2,0-5-2.3-5-5.3V0.7H74.9z"/>
			<path style="clip-path:url(#SVGID_00000141437034306807986220000006544527770773604265_);fill:#FFFFFF;" d="M85,0.7h1.7
				c2.6,0,5,0.7,5,3.8c0,1-0.5,2.2-1.5,2.6v0C91.8,7.4,93,9,93,10.6c0,2.8-2.4,3.8-4.8,3.8H85V0.7z M86.7,6.8h0.4c1.6,0,3-0.3,3-2.3
				c0-1.9-1.3-2.3-2.9-2.3h-0.5V6.8z M86.7,12.9H88c1.6,0,3.2-0.5,3.2-2.4c0-1.9-2-2.3-3.5-2.3h-1.1V12.9z"/>
			<polygon style="clip-path:url(#SVGID_00000141437034306807986220000006544527770773604265_);fill:#FFFFFF;" points="95.9,12.8 
				100,12.8 100,14.4 94.1,14.4 94.1,0.7 95.9,0.7 			"/>
			
				<rect x="101.4" y="0.7" style="clip-path:url(#SVGID_00000141437034306807986220000006544527770773604265_);fill:#FFFFFF;" width="1.7" height="13.8"/>
			<path style="clip-path:url(#SVGID_00000141437034306807986220000006544527770773604265_);fill:#FFFFFF;" d="M115.5,3.3
				c-1-0.9-2.3-1.4-3.6-1.4c-3.1,0-5.4,2.6-5.4,5.6c0,3,2.3,5.6,5.4,5.6c1.4,0,2.6-0.5,3.7-1.4v2c-1.1,0.6-2.4,1-3.6,1
				c-3.9,0-7.2-3.1-7.2-7.1c0-4.1,3.3-7.2,7.3-7.2c1.2,0,2.4,0.3,3.5,0.9V3.3z"/>
			<polygon style="clip-path:url(#SVGID_00000141437034306807986220000006544527770773604265_);fill:#FFFFFF;" points="122.8,12.8 
				127,12.8 127,14.4 121.1,14.4 121.1,0.7 122.8,0.7 			"/>
			
				<rect x="128.3" y="0.7" style="clip-path:url(#SVGID_00000141437034306807986220000006544527770773604265_);fill:#FFFFFF;" width="1.7" height="13.8"/>
			<path style="clip-path:url(#SVGID_00000141437034306807986220000006544527770773604265_);fill:#FFFFFF;" d="M131.7,0.7h1.7
				c2.6,0,5,0.7,5,3.8c0,1-0.5,2.2-1.5,2.6v0c1.6,0.3,2.8,1.9,2.8,3.5c0,2.8-2.4,3.8-4.8,3.8h-3.2V0.7z M133.4,6.8h0.4
				c1.6,0,3-0.3,3-2.3c0-1.9-1.3-2.3-2.9-2.3h-0.5V6.8z M133.4,12.9h1.3c1.6,0,3.2-0.5,3.2-2.4c0-1.9-2-2.3-3.5-2.3h-1.1V12.9z"/>
			<path style="clip-path:url(#SVGID_00000141437034306807986220000006544527770773604265_);fill:#FFFFFF;" d="M149.5,14.4h-2.1
				l-4.1-5.8h-0.7v5.8h-1.7V0.7h2.1c1.2,0,2.5,0,3.6,0.6c1.1,0.7,1.8,2,1.8,3.3c0,2-1.3,3.6-3.3,3.8L149.5,14.4z M142.6,7.2h0.5
				c1.8,0,3.6-0.3,3.6-2.5c0-2.2-2-2.5-3.7-2.5h-0.5V7.2z"/>
			<path style="clip-path:url(#SVGID_00000141437034306807986220000006544527770773604265_);fill:#FFFFFF;" d="M153,11l-1.6,3.4
				h-1.8l6.6-14.3l6.6,14.3h-1.8l-1.6-3.4H153z M156.2,3.8l-2.4,5.6h4.9L156.2,3.8z"/>
			<path style="clip-path:url(#SVGID_00000141437034306807986220000006544527770773604265_);fill:#FFFFFF;" d="M171.5,14.4h-2.1
				l-4.1-5.8h-0.7v5.8h-1.7V0.7h2.1c1.2,0,2.5,0,3.6,0.6c1.1,0.7,1.8,2,1.8,3.3c0,2-1.3,3.6-3.3,3.8L171.5,14.4z M164.6,7.2h0.5
				c1.8,0,3.6-0.3,3.6-2.5c0-2.2-2-2.5-3.7-2.5h-0.5V7.2z"/>
			<polygon style="clip-path:url(#SVGID_00000141437034306807986220000006544527770773604265_);fill:#FFFFFF;" points="170.3,0.7 
				172.3,0.7 175.7,6.5 179,0.7 181,0.7 176.5,8.4 176.5,14.4 174.8,14.4 174.8,8.4 			"/>
		</g>
	</g>
</g>
</svg>
