<svg width="48" height="48" viewBox="0 0 48 48" fill="none" xmlns="http://www.w3.org/2000/svg">
<g clip-path="url(#clip0_1605_3775)">
<path fill-rule="evenodd" clip-rule="evenodd" d="M40.33 23.665C40.33 14.4612 32.8688 7 23.665 7C14.4612 7 7 14.4612 7 23.665C7 32.8688 14.4612 40.33 23.665 40.33C32.8688 40.33 40.33 32.8688 40.33 23.665ZM17.3178 28.3892C20.1134 28.3892 22.3797 26.1553 22.3797 23.3997C22.3797 20.644 20.1134 18.4102 17.3178 18.4102C14.5222 18.4102 12.2559 20.644 12.2559 23.3997C12.2559 26.1553 14.5222 28.3892 17.3178 28.3892ZM35.0724 23.3997C35.0724 26.1553 32.8076 28.3892 30.0139 28.3892C27.2202 28.3892 24.9555 26.1553 24.9555 23.3997C24.9555 20.644 27.2202 18.4102 30.0139 18.4102C32.8076 18.4102 35.0724 20.644 35.0724 23.3997Z" fill="black"/>
</g>
<defs>
<clipPath id="clip0_1605_3775">
<rect width="33.33" height="33.33" fill="white" transform="translate(7 7)"/>
</clipPath>
</defs>
</svg>
