<svg width="48" height="48" viewBox="0 0 48 48" fill="none" xmlns="http://www.w3.org/2000/svg">
<path fill-rule="evenodd" clip-rule="evenodd" d="M40.33 23.665C40.33 14.4612 32.8688 7 23.665 7C14.4612 7 7 14.4612 7 23.665C7 32.8688 14.4612 40.33 23.665 40.33C32.8688 40.33 40.33 32.8688 40.33 23.665ZM23.7507 28.2098C25.8822 28.2098 27.6262 26.4658 27.6262 24.3343V17.8755C27.6262 15.744 25.8822 14 23.7507 14C21.6192 14 19.8752 15.744 19.8752 17.8755V24.3343C19.8752 26.4658 21.6192 28.2098 23.7507 28.2098ZM28.9188 24.3343V22.3965H31.5008V24.3343C31.5008 28.1444 28.7238 31.3102 25.042 31.9557V34.6686H22.4588V31.9557C18.777 31.3744 16 28.1456 16 24.3343V22.3965H18.5833V24.3343C18.5833 27.1768 20.9086 29.5021 23.751 29.5021C26.5935 29.5021 28.9188 27.1768 28.9188 24.3343Z" fill="black"/>
</svg>
